# xmcd
#
# Track frame offsets: 
#        150
#        16269
#        30631
#        46554
#        60230
#        75333
#        94020
#        113469
#        129281
#        145035
#        158723
#        169867
#        185201
#        199340
#        214389
#        231519
#        244678
#        262303
#        276372
#        290537
#        305959
#
# Disc length: 4277 seconds
#
# Revision: 1
# Processed by: cddbd v1.5.2PL0 Copyright (c) Steve Scherf et al.
# Submitted via: ExactAudioCopy v1.3
#
DISCID=2c10b315
DTITLE=Various Artist - MNM Big Hits 2019 Vol. 1 - CD 1
DYEAR=2019
DGENRE=Top 40
TTITLE0=Calvin Harris and Sam Smith - Promises
TTITLE1=Panic! At The Disco - High Hopes
TTITLE2=DJ Snake Feat. Selena Gomez, Ozuna and Cardi B - Taki Taki
TTITLE3=Ellie Goulding X Diplo Feat. Swae Lee - Close To Me
TTITLE4=Halsey - Without Me
TTITLE5=Fisher - Losing It
TTITLE6=Imagine Dragons - Bad Liar
TTITLE7=Kygo Feat. Sandro Cavazza - Happy Now
TTITLE8=George Ezra - Hold My Girl
TTITLE9=Lewis Capaldi - Someone You Loved
TTITLE10=Post Malone - Wow.
TTITLE11=Hooverphonic - Uptight
TTITLE12=Dua Lipa and Blackpink - Kiss And Make Up
TTITLE13=Milow Feat. Matt Simons - Lay Your Worry Down
TTITLE14=Khalid - Better
TTITLE15=S!ma - Saus
TTITLE16=Oscar And The Wolf - On Fire
TTITLE17=Jax Jones And Years and Years - Play
TTITLE18=Zara Larsson - Ruin My Life
TTITLE19=Lukas Graham - Love Someone
TTITLE20=Niels Destadsbader - Vlinders In Haar Buik
EXTD=
EXTT0=
EXTT1=
EXTT2=
EXTT3=
EXTT4=
EXTT5=
EXTT6=
EXTT7=
EXTT8=
EXTT9=
EXTT10=
EXTT11=
EXTT12=
EXTT13=
EXTT14=
EXTT15=
EXTT16=
EXTT17=
EXTT18=
EXTT19=
EXTT20=
PLAYORDER=
